<?xml version="1.0" encoding="UTF-8"?>
<!DOCTYPE svg PUBLIC "-//W3C//DTD SVG 1.1//EN" "http://www.w3.org/Graphics/SVG/1.1/DTD/svg11.dtd">
<!-- Creator: CorelDRAW X7 -->
<svg xmlns="http://www.w3.org/2000/svg" xml:space="preserve" width="594mm" height="841mm" version="1.1" style="shape-rendering:geometricPrecision; text-rendering:geometricPrecision; image-rendering:optimizeQuality; fill-rule:evenodd; clip-rule:evenodd"
viewBox="0 0 594000 841000"
 xmlns:xlink="http://www.w3.org/1999/xlink">
 <defs>
  <style type="text/css">
   <![CDATA[
    .fil0 {fill:#2B2A29}
   ]]>
  </style>
 </defs>
 <g id="Слой_x0020_1">
  <metadata id="CorelCorpID_0Corel-Layer"/>
  <path class="fil0" d="M265230 127248c40,1596 1160,2890 1793,4098 5627,10749 1057,20507 12617,29858 12867,10407 22857,8374 24306,24214 -974,-528 -2276,-1954 -4778,-3379 -7597,-4326 -12468,-1850 -18983,-504 -10822,2235 -12781,-7996 -10320,-10545 945,-978 3286,-1200 4415,33 594,649 115,606 957,936 432,-2971 -772,-3574 -2181,-4963 316,-2955 706,-4682 -271,-7637 -595,-1798 -2099,-4348 -3785,-4534 1996,4072 2704,9205 432,13380 -2760,5074 -4594,5382 -1509,11672 -6248,-314 -13429,-6837 -13246,-13348 104,-3671 1559,-8218 3565,-9741 1178,-895 3345,-1545 4840,-380 1478,1151 1517,3010 1215,5290 2351,-1023 2293,-3937 857,-5952 -1507,-2117 -3030,-2333 -6406,-2001 586,-3489 1439,-6450 -73,-10070 -1998,-4785 -6226,-2591 -5897,17 794,-260 1787,-1714 3272,-436 764,658 1223,2047 1420,3265 421,2602 -355,5409 -1187,7584 -860,2246 -1840,4200 -2745,6425 -1325,3257 -1252,3961 -1390,7750 -305,-874 -967,-1974 -1363,-3086 -1497,-4199 -1561,-7358 -2652,-10726 -1187,-3662 -5029,-8649 -9501,-8587 684,682 1912,1116 2758,1712 974,686 1662,1311 2338,2121 4654,5579 1383,10544 6581,20175 7449,13803 17064,12238 20772,14942 -1254,1353 -2357,2057 -3670,3653 -1017,1237 -2085,2724 -3064,3975 -12173,15559 -20494,2162 -16319,-2940 1701,-2079 2811,-1172 4968,-651 -396,-4364 -5289,-1891 -5450,-1851 -496,-4671 -3415,-11048 -6677,-12083l928 1294c2630,3956 3592,8439 2816,14114 -1157,8458 4095,9701 5380,11915 -4803,62 -10476,-1739 -12160,-6279 -291,-785 -549,-1552 -746,-2303l-493 -1841c-198,-398 -44,-161 -319,-426 -1352,2948 -584,5467 626,7908 -2254,1239 -3838,1084 -3925,4758 -58,2423 1720,4316 4151,4121 -759,-1269 -3130,-2803 -1549,-4848 1109,-1435 3119,-2087 5502,-1226 6067,2191 3688,3139 11564,3195 -371,2724 -806,5104 903,7090 1355,1574 4999,2936 5213,-346 -944,396 -716,996 -2034,950 -2808,-98 -2119,-5177 -1741,-6905 447,-2046 1397,-2239 2633,-3244 1310,-1065 1950,-1682 3094,-2771 8227,-7844 7991,-12952 19805,-15868 6252,-1544 13401,-2967 18456,2001 1439,1415 3994,4435 4651,7021 -1749,-1213 -2458,-2390 -5482,-3148 -2416,-606 -5459,-466 -7785,215 -4331,1268 -8172,4243 -10057,7076 -2550,3833 -5833,14496 -8989,16822 -798,589 -2017,1134 -3053,615 -1046,-524 -1077,-1820 -1684,-2662l-197 400c-102,299 -262,220 -140,1373 136,1290 891,2439 2292,2735 5382,1135 8348,-8141 10248,-9978 1121,1763 739,3342 2998,4238 2403,953 3995,-634 4085,-2714 -1123,602 -1435,1514 -3003,1153 -981,-226 -1619,-1033 -2002,-1969 -2429,-5934 2977,-13469 9436,-14203 -690,3253 -2065,5914 -530,9534 655,1545 1387,2142 2137,3478 1061,1893 153,2688 -116,4345 1445,-404 2294,-2193 2010,-4337 -258,-1938 -1335,-2821 -1948,-4415 -1248,-3246 -846,-8696 2433,-9245 4275,-717 7233,1749 8364,4532 1347,3315 711,8121 602,11913 -508,17681 491,58616 -2783,74509 -846,4105 -2133,6208 -4218,8665 -1416,1670 -4748,4159 -7159,5511 -3834,2150 -14774,1793 -21405,4398 -2612,1026 -6444,3310 -6926,6026 -862,4859 7197,3411 5587,29 -625,668 -1105,1880 -2293,1272 -376,-463 -407,-477 -304,-1353 543,-4645 13909,-6079 16823,-5798 -1625,1654 -4885,2820 -4686,6247 109,1886 929,2768 2895,2652 1665,-98 2889,-778 2734,-2603 -665,363 -242,627 -1328,729 -3078,290 -1712,-3900 3072,-5484 2570,-852 5537,-1095 8445,-1128 -434,1797 -3852,2944 -2206,6836 1131,2674 5123,2529 5047,-1299 -45,42 -98,106 -125,137 -2811,3220 -3061,-909 -1278,-3087 4288,-5237 19166,-4760 24809,-2381 2167,914 6440,3744 4189,6700 -1298,-39 -1330,-700 -1963,-1479 -407,3662 3678,4196 4913,1643 1781,-3681 -1198,-5025 -2088,-7042 3059,38 6038,214 8730,1221 2031,760 5203,2405 4122,5090 -1296,494 -1744,209 -2713,-399 58,3506 5814,3773 5672,-579 -52,-1588 -1065,-2810 -1855,-3498 -560,-488 -2293,-1911 -2887,-2238 2390,-429 8272,722 10533,1395 2553,761 7534,2553 6095,5838 -745,74 -1016,59 -1505,-320l-712 -767c-29,-31 -115,-47 -136,-133 -22,-87 -89,-94 -140,-132 -71,5019 7293,3564 5464,-886 -1033,-2514 -4413,-4332 -7416,-5493 -6171,-2386 -16662,-1696 -21161,-4405 -5320,-3203 -9607,-6893 -11018,-14636 -1354,-7432 -1591,-15713 -1884,-23622 -623,-16828 -76,-33895 -758,-50635 -154,-3782 -720,-8401 711,-11672 1146,-2619 4102,-5081 8383,-4252 3330,645 3508,6544 2229,9456 -462,1053 -4256,6589 107,8538 -155,-1817 -1339,-2391 65,-4596 3996,-6277 2846,-5721 1483,-12790 6532,925 12101,8256 9313,14433 -433,958 -1093,1743 -2394,1816 -1785,99 -1619,-813 -2444,-1248 -421,3485 4133,4010 6006,833l841 -1958c195,-346 67,-178 319,-411 1715,3622 5621,11381 10413,9934 1488,-449 2536,-2440 1781,-4485 -591,351 -576,1985 -1734,2676 -2851,1702 -5624,-3624 -6601,-5660 -1943,-4050 -3170,-8241 -5573,-11784 -3364,-4961 -11373,-9043 -18099,-7153 -2990,840 -3193,1940 -5223,3074 1994,-5387 6206,-9929 13049,-10523 3458,-300 7262,776 10375,1561 3768,951 5617,1463 8195,3569 4134,3376 7449,8643 11344,12357 2121,2022 5289,3497 5773,6207 220,1229 324,4302 -63,5350 -970,2636 -3433,467 -3735,263 70,3390 4005,1815 5251,299 1839,-2238 1138,-4263 859,-7073 6605,616 7200,-1744 11832,-3242 2302,-745 4545,80 5391,1523 1285,2194 -1184,3452 -1698,4708 2564,-123 4251,-1664 4095,-4420 -170,-2994 -1455,-3607 -3889,-4406 832,-2261 2305,-5165 567,-7954 -502,245 -282,188 -467,919 -122,480 -209,951 -322,1362 -642,2349 -1600,4238 -3450,5690 -2123,1667 -5959,3000 -9456,2780 700,-983 1718,-1400 2499,-2227 2706,-2865 3398,-6474 2763,-10511 -1352,-8590 3339,-12923 3864,-14659 -2000,956 -3386,2957 -4497,5004 -656,1210 -1021,2178 -1408,3530 -232,810 -607,3099 -868,3687 -811,-306 -2151,-1140 -3413,-722 -870,288 -1849,1404 -1934,2480 1197,-84 1358,-804 2886,-564 5949,934 3330,14513 -6591,10804 -3302,-1235 -5868,-4306 -7670,-6644 -1127,-1464 -1991,-2660 -3195,-4079 -1675,-1974 -2863,-2717 -3525,-3492 892,-688 9189,-3039 12708,-5335 3305,-2156 6015,-5754 8135,-9701 2566,-4780 2937,-8020 3854,-13948 1074,-6951 4857,-7751 7810,-9903 -4161,-576 -8378,5047 -9448,8245 -1199,3586 -1965,11603 -4093,13780 29,-6174 -2386,-9141 -4211,-14099 -817,-2218 -1621,-5232 -1026,-7850 257,-1129 858,-2562 1514,-2949 1679,-991 2168,555 3125,555 207,-3251 -4253,-3971 -5916,-50 -1451,3420 -609,6834 -127,10172 -3101,-342 -5224,90 -6509,2192 -1317,2154 -1187,5146 1031,5777 -301,-1995 -346,-4113 1106,-5282 1451,-1169 3518,-776 4826,338 2196,1869 3518,5740 3638,9750 207,6926 -6788,12489 -13210,13394 395,-1145 990,-1518 1305,-3011 1635,-7768 -8092,-8089 -2428,-22124 -1811,411 -3235,2725 -3857,4836 -873,2962 -513,4456 -169,7378 -1314,1296 -3162,2527 -2072,4938 295,-197 65,-16 375,-335 45,-47 175,-200 221,-251 1254,-1411 3576,-1737 4821,-146 2633,3364 -648,12589 -10931,10240 -4585,-1048 -8198,-2603 -13384,-1422 -5598,1276 -6338,3048 -9916,5465 119,-3185 1380,-7054 2793,-9309 3194,-5095 9294,-7109 14401,-10008 4752,-2698 10185,-6577 12670,-11492 1447,-2864 2688,-5335 3279,-8949 618,-3781 757,-6684 1953,-10217 1005,-2971 3608,-6759 3575,-8359 -1814,776 -5424,7684 -6554,10532 -1617,4079 -1052,10042 -4007,12871l-3530 -6544c-3660,-7433 747,-10462 749,-16668 1,-2504 -1187,-6489 -2967,-7384 94,4029 2320,10079 -588,13066 -1751,96 -2182,-892 -4225,-878 -4432,32 -6619,4907 -4994,8836 654,-735 510,-3108 1040,-4219 554,-1161 1503,-1902 3059,-2055 3995,-392 4328,2296 4379,5777 76,5276 6213,10627 3821,15753 -2563,5492 -12732,9479 -18283,12682 -1901,1096 -4531,3252 -6201,3951 -347,-5768 1840,-14685 4353,-18699 1243,-1985 4850,-5348 7029,-2730 2575,3091 -285,7808 -343,8933 3996,-1376 5888,-11276 -772,-12727 -6940,-1512 -9367,7595 -10893,9710 -351,-4851 1217,-10845 2829,-14728 3634,-8752 10375,-13569 13716,-21240 1530,-3512 1667,-11810 1254,-16075 -1438,1282 -2062,5669 -2199,8019 -229,3918 72,5553 -2023,8089 -1195,-829 -1029,-3033 -3976,-2992 -2424,35 -3433,1172 -3321,3599 643,-317 213,-88 671,-621 1573,-1826 4011,-465 4008,2166 -4,3303 -5066,8141 -7085,10716 -642,819 -1287,1714 -1901,2557 -659,905 -1183,2006 -2014,2510 -274,-3566 -246,-7248 -256,-10848 -15,-5529 2299,-12011 4844,-16774 976,-1827 2710,-6485 1525,-8851l-610 1334c-877,3081 -2520,5873 -4081,8571 -1847,3193 -2998,6383 -4330,9942 -981,-616 -1880,-4021 -2344,-5151 -1432,-3487 -3484,-6119 -5038,-9510 -394,-859 -1625,-4832 -2041,-5252 -1066,2749 489,7018 1574,9005 1114,2040 2255,5259 3159,7646 1286,3395 1644,5252 1634,9275 -8,3276 139,7456 -294,10595l-7929 -10008c-1195,-1323 -3143,-3304 -3038,-5994 54,-1384 829,-2537 1819,-2768 1698,-395 2050,701 2694,1512 882,-1940 -945,-3565 -3008,-3642 -2721,-102 -2798,1535 -3981,2950 -2147,-1616 -1992,-4905 -2174,-8132 -122,-2161 -831,-7053 -2218,-7943 -223,4847 -425,12049 1324,16174 3539,8349 17702,18843 16498,35700 -515,-574 -623,-1173 -982,-1930 -303,-638 -506,-1062 -869,-1717 -1713,-3084 -4743,-7050 -9269,-5835 -6733,1806 -4123,11498 -482,12664 -245,-1638 -1276,-2584 -1404,-4394 -508,-7192 5037,-6784 8091,-1721 2679,4443 4455,12507 4336,18592 -615,-157 -5071,-3254 -6298,-3956 -2185,-1249 -4491,-2408 -6745,-3579 -21519,-11181 -7714,-15745 -7661,-25077 20,-3475 574,-6016 4538,-5512 1364,173 2420,1011 2955,2134 574,1205 284,3051 829,4075 1759,-1983 125,-6053 -1263,-7405 -3135,-3054 -5650,-189 -7889,-557 -1353,-1570 -1417,-3952 -1343,-6348 59,-1901 1003,-5311 753,-6664 -1454,465 -2827,5111 -2870,7145 -56,2675 1254,5673 1825,8196 1180,5211 -876,8428 -3008,12035 -755,1276 -982,2295 -1494,2992l-266 273c-1178,-2008 -1901,-3213 -2427,-6221 -477,-2727 -553,-4491 -1512,-6931 -1003,-2551 -4848,-9823 -6490,-10200zm62399 210570c1770,-497 2683,-2410 5042,-1277 1511,726 2410,2244 2460,4135 45,1671 -1252,3633 -3072,3474 -1412,-123 -1035,-1216 -2466,-605 -264,113 -734,688 -808,948 -1030,3630 8364,1225 8017,-6429 -103,-2264 -1724,-3993 -4297,-3805 -1413,103 -4342,1909 -4876,3559zm-35322 5947c17,-1874 2321,-4161 3606,-5217 6134,-5037 8977,3815 4658,5196 -852,272 -3446,119 -4436,28 -1640,-150 -2072,16 -3828,-7zm9579 987c273,-1084 2435,-2400 3060,-4191 385,-1102 -116,-2543 554,-2982 706,-462 4861,-914 1969,5703 -758,1736 -3328,1544 -5583,1470zm18193 -7949c-3986,-3539 -7547,1671 -9341,1936 -185,-2101 205,-1487 -735,-3013 -3166,-582 -3234,347 -5412,953 -1392,-667 -417,-884 -2246,-1310 -1136,-264 -2028,-103 -3004,245 -3414,1215 -2870,2135 -4584,2198 -103,-2173 369,-1541 -505,-3488 -1853,-135 -3391,-138 -5047,759 -866,469 -730,390 -957,1235 671,-9 5714,-2321 4134,3149 -1747,6047 -13550,20426 -18392,25032l-6771 6129c-1592,1382 -1894,1014 -2163,2243 1057,-175 1480,-743 2290,-1418 631,-527 1244,-910 1859,-1433 10156,-8640 14001,-14144 21305,-24534 3029,-470 5103,109 7651,481 1147,167 2399,576 3373,620 1549,69 2227,-360 3761,-470l162 419c15,55 41,133 55,190 397,1707 -340,-255 17,656 1759,-221 2512,-2546 3543,-4356 6384,-11210 11835,-3022 9495,807 -1918,3139 -4167,332 -5394,705 -2020,616 -1061,3872 2248,2472 2152,-911 3137,-1756 4345,-3385 2538,-3425 666,-5236 917,-5916 1494,-1883 4252,-689 3767,2872 -585,4287 -5086,14460 -6940,18192 -1938,3901 -3831,6935 -6161,10699 -1546,2495 -6812,8785 -6922,9551 1013,31 1560,-1144 2077,-1720l5155 -6806c6352,-9404 9308,-16303 13177,-26759 1499,-4051 2410,-4578 2668,-5432l-545 -158c-44,-10 -119,-23 -162,-32 -400,-85 198,264 -580,-86l-158 -2216c-464,-208 -682,-387 -1052,-812 -3149,-49 -3226,1169 -4928,1801zm-1191 -9508c-481,940 -673,965 -1039,1741 -399,849 -436,798 -737,1840l511 75c643,-1010 717,-879 1552,-1759 728,-768 1322,-1003 1225,-2465 -1386,169 -403,150 -1512,568zm-2456 -2322l-59 1890c-47,1033 -351,1538 186,2257 494,-418 242,-157 589,-1009 340,-832 951,-3061 778,-3848 -955,-86 -311,-224 -1494,710zm-974 5290c-466,-371 -226,36 -383,-630 -101,-426 -31,-265 -29,-703 4,-849 92,-766 -90,-1686 -657,-1163 103,-1385 -1463,-1354 -284,1535 375,1477 652,2828 101,492 80,1074 195,1518 207,794 154,625 811,788 252,-370 173,73 307,-761zm68506 -3182c-1515,4117 -6345,2464 -7196,-337 -597,-1969 -34,-4328 1730,-4513 417,-44 4444,736 2572,-2663 -2425,-369 -3770,1260 -4706,3219 -953,1995 -1356,4385 -433,6603 1528,3672 5865,3708 8226,-752 687,-1298 -112,-1476 -193,-1557zm-34999 13783c11,-2815 3396,-12482 8065,-8299 1904,1706 1122,5161 -945,6025 -1178,492 -2383,638 -3746,968 -1636,395 -2089,1052 -3374,1306zm10455 -10537c49,-42 126,-166 151,-121 21,40 607,-616 1196,-787 2540,-737 2567,2659 2603,4434 40,1921 -198,2220 -1550,3042 -769,467 -2457,1318 -3211,1374 -3,-1445 147,-706 582,-1713 1356,-3141 298,-5278 229,-6229zm-16813 5264c912,-268 1523,-1879 3075,-2017 2881,-257 2562,4692 2101,6370l-489 2074c-221,753 -177,300 -425,826 -937,1982 1924,-535 4194,-1039 1056,-235 1095,-446 1926,-617l4217 -740c2550,-450 4110,-1884 5114,-2310 1052,462 -257,317 928,837 814,-1136 1337,-2667 1493,-4412 110,-1229 149,-4733 -90,-5869 -1042,-4942 -6175,895 -6321,933 -1090,-143 -1873,-584 -3281,-261 -2393,549 -4151,4230 -5401,4676 -650,-1012 221,-466 -1307,-2590 -2188,-82 -5108,1386 -5762,3510 -153,500 -231,126 28,629zm16236 -10935c1054,-368 901,-1190 1403,-2290 741,-1624 2839,-6396 2324,-7777 -944,373 -936,975 -1375,2222 -289,822 -521,1804 -863,2659 -384,962 -1425,4260 -1489,5186zm26805 -8739c-431,-3377 -1674,-12784 3190,-12032l-74 3148c-1850,-205 725,-1110 -1569,-630 -329,713 -320,1749 5,2330 365,652 765,627 1686,901 363,972 785,3525 773,4620 -1337,113 -1519,-141 -2415,636 -906,785 -464,1063 -1596,1027zm5009 -8049c781,-738 584,-900 996,-1831l756 24c2841,1898 5325,-5575 1593,-7202 -794,-345 -1770,-191 -2521,322 -861,588 -944,1276 -1347,1954 -1044,1755 -2140,-786 -4163,2398l-958 2095c-1322,2800 -156,10191 -147,12264 21,4713 1074,537 -368,8680 443,360 802,154 1185,580 566,628 289,8670 221,9489 -152,1831 -467,3153 -660,4938 -137,1275 -383,1086 -554,2148 -204,1267 -104,1237 -511,2329 -344,920 -191,1455 -485,2408 -1264,4092 -1898,6397 -3472,10606 -795,2126 -1712,3226 -1006,4227 186,-208 146,-156 334,-476 30,-49 63,-109 91,-161l2752 -7613c215,-829 264,-790 555,-1542 1611,-4171 3731,-13300 3847,-18017 81,-3271 697,-4673 62,-8086 -230,-1237 -264,-2556 -430,-3886 -136,-1088 -423,-2650 -403,-3993 46,-3158 2880,-3527 4085,-805 446,1007 767,2404 845,3621 75,1172 -290,3116 230,3979 1172,-641 910,-3818 726,-5138 -128,-920 -239,-1902 -397,-2927 -188,-1219 -519,-1574 -632,-2475 115,-995 3521,-4634 5052,1862 737,3127 399,852 545,3780l338 1312c1697,-1543 -315,-15149 -4745,-10520 -709,741 -610,1381 -1542,698 -331,-497 -383,-2079 -471,-2820 -208,-1746 228,-1276 599,-2222zm132 -2489c-116,-269 -208,-380 -415,-422 22,38 42,66 62,107 70,79 129,220 129,322 0,167 19,321 -65,473 -25,55 -55,106 -98,149 -13,20 -27,39 -43,56 -31,51 -73,94 -123,126 -32,49 -74,91 -124,122 -64,65 -225,145 -314,159 -21,11 -43,20 -66,28 -41,35 -98,63 -148,86 -31,23 -76,53 -110,70l-59 -33 114 -1672c915,-27 1047,-65 1260,429zm2568 -4438c1243,403 1673,1410 1622,2719 -859,484 -944,751 -1833,309 -953,-473 99,-391 -2077,-509l-491 -1528c690,-790 1107,-1532 2779,-991zm14591 22946c858,4086 159,3300 1478,3534 316,-748 -69,-4162 -1345,-4857 -64,109 -440,-142 -133,1323zm-8130 -42764c403,1425 -325,1655 -410,3439 -55,1145 -130,2603 -427,3577 -604,1981 -458,4702 -800,6901 -544,3493 -266,11740 422,14989 454,2147 1021,4519 2285,5663 1639,1484 3666,2035 5910,703 1318,-783 2773,-3076 3120,-4703 744,-3496 -514,-5114 -988,-6527 -643,-335 -1183,-822 -1788,-1097 -898,332 -1807,1180 -1298,2423 424,1034 1649,781 2448,1563 1532,1500 1048,4131 -553,5262 -4373,3091 -7770,-658 -8370,-5261 -480,-3688 -624,-15089 392,-18357 336,-1079 183,-2401 289,-3740l1121 -6446c-857,30 -612,-138 -927,462 -315,599 -125,1501 -341,952 -14,-35 -46,137 -85,197zm28415 -16349c865,197 2796,338 3316,1014l1328 131c-334,-896 62,-447 -869,-1079 -1102,-747 -2621,-1394 -3858,-796l-55 315c0,39 105,344 138,415zm1908 -2100l1040 680c729,532 36,328 1167,447 -194,-905 -760,-1613 -1388,-2357 -621,-735 -1023,-1119 -1759,-1703l-950 120c-5,1007 269,1103 776,1638 294,310 434,443 729,712 525,480 280,-24 385,463zm2828 -3686l-719 48c-416,1551 220,3178 890,4510 248,493 423,527 992,386 15,-161 -997,-4168 -1163,-4944zm-9870 19505c1887,-369 2166,-1297 2220,-3468 -858,406 -238,-34 -904,782 -200,245 -406,533 -733,639 -833,271 -772,-49 -959,-159 -986,-581 460,-109 -879,-488 -85,1735 197,2098 1255,2694zm-3410 -5978c-281,1648 -740,2414 -618,4556 76,1332 281,805 598,2026l1933 5291c401,839 1434,2800 1479,3488 -1752,922 -2982,307 -3860,2645 -1199,3193 -851,3867 -1233,5122 -1728,-43 -2493,-2565 -4400,-164 -545,686 -928,1264 -1161,2080 -280,982 -674,2013 -122,2827 575,-470 473,-922 858,-1609 2779,-4967 6032,3170 6604,5501 2439,4952 5565,20612 5634,26762 19,1657 467,3181 514,4911 26,941 11,1886 -29,2826 -35,794 -164,1784 264,2407 571,-297 333,-62 469,-758l51 -3528c44,-6395 -1248,-14666 -2592,-20926 -547,-2547 -1031,-4808 -1743,-7378 -1465,-5291 -4303,-10540 -3262,-14957 1368,-5810 11200,-1309 6608,3988 -2004,73 -2480,293 -2131,2473 1224,387 2039,954 3329,-1429 513,-947 1064,-2960 923,-4209 -228,-2011 -874,-4161 -2416,-5384 -455,-361 -985,-622 -1288,-990 -94,-278 2028,-6676 6287,1870 1232,2473 222,2505 1163,3091 644,-252 389,44 479,-711 161,-1359 -1648,-4973 -1600,-5549 -357,-291 -162,-47 -561,-532 -25,-30 -248,-375 -282,-431 -528,-881 -1264,-2117 -2265,-2667 -1067,-585 -1711,-302 -2418,399 -1237,1225 -523,1070 -1098,2110 -1241,-80 -998,-452 -1416,-1574 -1051,-2822 -4465,-8652 -1427,-10805 1478,-1047 2456,-73 3058,476 1,1 428,334 465,357 785,488 -1160,-315 727,340 -94,-2471 -1713,-3838 -4456,-3246 -125,515 -139,271 -491,652 -143,156 -523,591 -574,649zm20776 -6209c1320,46 1687,909 2411,2223 4118,7473 -2719,10620 -5092,6756 -2020,-3289 -123,-4959 856,-6399 653,-963 1152,-1550 1825,-2580zm12672 -32574c-922,-391 -3068,-3654 -3589,-4499 -1430,-2320 -1531,-1707 -2911,-4822 -946,-2135 -1509,-4424 1000,-5257 1166,-387 2487,230 2309,1562 -226,1704 -1561,778 -2678,697 158,4474 7320,2287 2549,-2988 -954,-1054 -2821,-2294 -4361,-692 -1999,2079 -272,5132 566,7063 304,701 804,1425 1216,2080 170,271 248,394 361,597 78,139 164,332 243,467l2048 2839c1631,2332 4796,5737 4631,8226 -1853,-261 -2923,-483 -3435,1543 -376,1490 -81,3544 643,4681 261,-272 350,-136 405,-1263 41,-855 6,-2027 1003,-2542 1390,-718 2526,445 3435,951 1095,609 2811,1723 3481,2648 641,883 467,1410 1726,1504 -507,-3410 -9918,-8741 -6231,-12581 1922,-2002 5605,-986 6857,1200 1193,2084 -575,2391 -1188,3301 -495,735 -672,2517 1973,2184 3491,-6211 -5159,-9375 -5571,-13579 -532,-5439 9191,-3592 7809,862 -382,1233 -2381,485 -1111,3454 4087,1075 3092,-7182 -2390,-9787 -2427,-1154 -5323,287 -5584,2444 -376,3110 1852,5600 1832,6683 -1364,45 -2394,-253 -3438,538 -1000,757 -919,1364 -1274,2046l-326 440zm7340 -25646c58,845 158,954 639,1533 1274,52 1647,-278 1650,-1585 -475,-436 -1134,-1312 -2289,52zm6402 4202c247,154 1543,1668 2700,-526l-953 -1231c-1330,-89 -1903,406 -1747,1757zm-2114 -8683c310,1111 2878,746 1886,-1065 -622,-1136 -2309,-450 -1886,1065zm-29464 66486c-2056,1385 -4050,8238 -2580,10213 714,-543 372,-860 382,-2075 12,-1621 989,-5152 2768,-5481 1174,2474 897,6621 5083,6927 4788,350 3708,-6288 4205,-7724 958,158 1829,1900 2325,2729l3559 6831c383,863 1105,3174 1518,3746 1077,3050 3575,12744 3807,15762l771 4894c109,423 81,349 222,591 268,-354 122,-17 281,-598l46 -1391c-185,-3116 -274,-1701 -597,-3539l-636 -3320c-275,-1071 5,-1534 -558,-3201l-4024 -13312c-4357,-10935 -10114,-15033 -9959,-17466 73,-1147 833,-1719 1830,-1706 1052,14 1551,987 2189,1631 724,731 1368,1169 2052,1928 1991,2208 7978,11533 9248,13971 1767,3390 3672,7112 5162,10596 983,2297 3534,10604 3736,10810 389,397 88,195 659,390 40,-1044 -963,-3468 -1284,-4680 -175,-658 -180,-846 -420,-1479l-2013 -5488c-1804,-4267 -2983,-6329 -4826,-10146 -1658,-3432 -3757,-6410 -5588,-9452 -2579,-4284 -6608,-7643 -6908,-11994 -316,-4594 4226,-5127 6147,-3686 1167,875 2974,3259 1246,4857 -840,776 -1923,282 -1717,2092 362,3187 4908,140 2775,-5501 -2347,-6211 -7864,-5365 -8880,-2487 -717,2034 -216,4965 -20,6973 -1684,-95 -179,-139 -1553,-495 -2856,-741 -2766,1554 -3169,3050 -452,1675 -5074,6148 -5279,7230zm32760 -101804c356,991 2026,3502 2524,4001 987,990 1074,1537 2025,2682 1386,1669 2197,2969 3918,4539 1253,1142 2654,2944 5488,2829 5557,-227 282,-10118 -3808,-6057 16,1204 651,2704 1842,2834 153,-1100 -201,-1296 430,-1920 503,-498 1119,-566 1687,-58 873,782 610,2482 -162,3251 -3410,3401 -10573,-8259 -12549,-11157 -670,-982 -397,-812 -1395,-944zm-27760 -653c-2248,-1460 -4868,-4038 -6282,-4306 257,1174 1785,1885 2523,2438l8144 5910c1913,1322 8111,5111 10351,6079 3281,1417 12993,6435 15068,-344 474,-1548 -243,-2683 -577,-3825 -382,-1303 -1133,-1784 -2035,-2639 -4569,-4326 -9442,-1556 -7815,539 228,293 1008,789 1432,771 626,-27 4747,-4708 6848,1221 1429,4033 -3510,6930 -8115,5136 -980,-381 -43,-140 -749,-390 -614,-218 -1271,-230 -1961,-493 -2896,-1104 -7654,-3941 -10609,-5784 -2666,-1663 -4429,-3148 -6223,-4313zm31993 -20878l85 157c-1344,-66 -1573,-321 -2672,-406 213,824 230,735 691,1323 740,67 1221,61 1956,271 1117,318 -70,154 932,309 487,76 644,25 1135,-5 -283,-1719 -373,-1054 -1557,-1344 -524,-128 -286,-92 -570,-305zm-22128 -2663l920 1011c3572,4108 12412,2017 11986,6857 -111,1265 -831,1793 -1721,2597 -2416,2183 -5480,493 -5874,-411 -48,-1289 600,-2245 -63,-3012 -1280,-1619 -4717,41 -227,3962 4650,4058 12383,942 9655,-3818 -248,-432 -52,-35 -232,-426 -233,-507 -46,101 -138,-431 -694,-332 -594,-341 -1212,-834 -1649,-1313 -2103,-1257 -3248,-2069 750,-1827 5757,-2878 -1009,-8042 -857,134 -418,-168 -826,298 742,935 2185,841 1707,3445 -279,1523 -1166,2256 -2386,2780 -1293,556 -3157,574 -4304,-188 -1435,-954 -709,-2214 -643,-2740 64,-505 25,-805 -1,-1316l-1525 -646c-303,236 -700,517 -1046,710l187 2273zm-36443 -17846l1854 857c2843,1588 6693,3286 9717,4412 1391,517 2716,1106 4125,1506 4036,1144 9395,2939 13358,3562 533,84 4498,840 4562,878 1983,191 3451,426 5559,585 985,73 1084,328 2391,569 1739,320 1023,494 2307,799 683,-847 -144,-878 851,-1245 453,-456 1384,-523 1619,-1532 169,-731 -264,-1779 -575,-2283 -480,-780 -795,-1209 -1461,-1797 -1841,-1630 -2171,-528 -2172,-528 283,393 57,87 411,388 832,707 1728,1636 1412,2898 -1082,4325 -21732,-1199 -23983,-1951 -7588,-2537 -7868,-2226 -15844,-5951 -1785,-833 -2806,-1891 -4792,-2368 12,801 515,1090 517,1086 18,-40 99,73 144,115zm20983 -30676c1906,1249 2971,2750 841,4446 -1009,280 -934,392 -1570,622 -2609,944 -4079,599 -5501,692 -1134,75 -594,-185 -899,427 1073,1890 11159,-1645 13177,2514 1329,2739 -3149,6748 -5955,5019 -1313,-810 -816,-1532 -1033,-3190 -816,-548 -1526,-722 -2575,-256 -639,2638 2203,3978 4409,4565 2490,663 6022,-625 8434,252 1217,442 1804,1215 1982,2481 327,2324 -1674,4665 -4869,4477 -2231,-131 -1897,-1032 -1876,-2960 -1170,-1085 -1622,-1488 -2477,-615 -2448,2501 5500,6726 9961,3630 3176,-2205 2599,-5735 -1116,-7217 -1822,-727 -2445,-588 -3322,-903 20,-1439 3286,-3909 -675,-6419 -344,-218 -234,-116 -567,-362 -1765,-1306 -1971,-490 -3190,-1485 252,-1185 1828,-1272 1518,-2817 -900,-1904 -2619,-3391 -5147,-3379 411,545 -154,190 450,478zm17159 10411c263,733 -347,361 593,728l2578 144c1671,-114 651,202 1100,-637 -466,-695 416,-386 -865,-574l-2382 10c-112,9 -373,35 -455,55 -420,102 -344,134 -569,274zm-4593 15797c-1587,175 -3212,1877 -3750,2603 -550,2047 -796,3080 514,4997 1870,2736 5840,4548 8965,3449 620,-218 1402,-647 1864,-1202 924,-1110 404,-1271 -275,-2202 -3498,-509 -1564,2534 -5452,2358 -1038,-46 -1408,-18 -2538,-1415 -2065,-2553 -614,-6335 2492,-7321 1797,-571 5102,-720 7239,-109l18713 4776c2122,701 4798,2233 5713,1736 -109,-360 75,-387 -1201,-1057l-15916 -5155c-970,-199 -1325,10 -2273,-387 -1143,-479 -5063,-917 -6565,-1112 -772,-100 -1404,-409 -2002,-515 -801,-142 -1669,-57 -2487,-71 -1092,-18 -1776,-355 -2062,551l-979 76zm-82562 -55632c3955,-1721 7657,-3457 11231,-5427 473,-261 856,-452 1266,-647 2316,-1100 5572,-4258 9808,-4929 2625,-416 4292,1911 3648,4305 -237,877 -1037,1934 -1705,2521 -842,739 -2225,893 -3641,531 -414,-697 -714,-1697 -1409,-2076 -1402,-763 -3677,1480 -418,3008 2714,1272 5003,259 7975,-1538 7126,-4310 9514,2105 5385,5393 -578,460 -1440,1005 -2351,854 -873,-144 -1232,-861 -1538,-1482 -1216,-2468 -4479,-125 -1998,1532 1448,968 4042,1079 5367,472 893,-409 1657,-580 2322,-989 3600,-2218 4044,-6954 146,-7975 -3520,-921 -2863,421 -5774,115 255,-2331 951,-3537 -1250,-4863 -2004,-1207 -3542,-323 -5980,-591 79,-1214 2328,-3402 -2264,-4542 -1106,-275 -3072,-359 -3605,546 704,670 4611,50 3699,2948 -619,1966 -3913,3612 -4450,4059 -6657,4837 -19853,10829 -27921,12463 -115,24 -13201,2772 -7065,2695 4709,-59 15902,-4399 20522,-6383zm61960 21061l-1486 666c-2292,842 -6546,1945 -8218,-677 -2739,-4293 2511,-6812 5729,-4798 806,504 3858,4067 3975,4809zm-2951 -18528c-406,-1505 -1208,-1025 -2429,-734 -774,184 -1660,239 -2353,544 -363,159 -1038,258 -517,684 496,405 1600,161 2282,200 1138,65 1704,308 2762,-268 304,-164 274,-85 255,-426zm-3613 -5931c-332,-2 -662,1 -994,7 -612,1015 -448,1048 -841,2027 -229,568 -1287,2114 -1171,2570 496,127 2774,-2585 3113,-3181 342,-602 163,-846 -107,-1423zm-919 4609c95,274 637,27 825,-25 979,-272 2909,-787 3473,-1668 112,-175 471,-1008 355,-1184 -140,-212 -1196,-164 -1470,-58 -542,209 -1383,979 -1955,1349 -580,375 -1140,856 -1228,1586zm-15090 -3160c-881,-52 -1320,-160 -1834,247 903,1253 234,-535 3479,2046 82,1662 -53,1748 -981,2616 -3755,3515 -6352,2535 -6729,3786 1444,937 5082,-1426 7205,-1828 2796,-529 5547,-903 7022,1383 2571,3983 -3720,8461 -5716,5299 -759,-1202 26,-2548 -2753,-2093 -538,1097 -806,1758 332,2623 632,481 1680,851 2471,1055 4752,1223 7836,-2168 8375,-2407 2221,-984 6335,1973 6423,3863 -1875,218 -3904,-201 -5586,548 -3534,1575 -3098,6059 -106,7193l2252 839c733,200 1551,87 2226,422 -1762,2044 -8958,3365 -11969,3912 -4990,907 -10044,687 -15146,648l-9969 -196 26 869c2067,232 4987,110 7134,114 2326,3 4144,483 6799,469 2533,-13 4167,-413 6805,-482 4931,-128 7261,-1025 11990,-2168 5114,-1237 5975,-2155 9411,-3524l355 -126c4751,-1978 3368,409 6416,5 -404,-1039 -997,-802 -2005,-1711 -1572,-1416 -3851,-4461 -5187,-6122 -1657,-2058 -2573,-2994 -4872,-4486 -682,-442 -1775,-882 -2733,-970 -3960,-364 344,-2579 -3869,-5138 -1403,-851 -4470,-814 -5932,-1105 107,-1462 1432,-1089 885,-3456 -423,-914 -2758,-2038 -4219,-2125zm-57480 -26271c490,177 6170,-1133 3713,3463 -2343,4382 -13869,13522 -18274,16479l-12295 7192c-443,196 -1081,525 -1584,771 -928,453 -2012,855 -3076,1325 412,471 -684,507 958,411l9681 -4760c5090,-2826 12205,-7813 16424,-11481 2625,-2283 2692,-1996 5688,-5103l2700 -2698c951,-973 2184,-1635 3438,-2246 1287,-628 3023,-880 4058,211 2283,2406 789,5467 -1434,6917 -1628,1061 -2706,-597 -3335,-1633 -2763,-84 -2901,1707 -1313,2694 1469,913 2643,621 4024,136 1089,-382 797,-422 1673,-830 2171,-1012 2985,-3351 5971,-4387 1555,-540 2669,-861 3782,634 1740,2337 76,6007 -1992,6811 -1655,642 -2119,-558 -3055,-1704l-1491 -8c-502,593 -822,569 -758,1396 144,1848 3920,1542 4929,1287 1183,-298 2904,-1495 3846,-2436 494,-494 715,-698 1054,-1282 1241,-2137 793,-5158 -1330,-5974 -1174,-451 -2501,-274 -3732,-67 -1533,257 -1628,1131 -3408,915 -343,-3060 -407,-4913 -5016,-4345 -1345,165 -835,660 -2912,508 -40,-2900 -875,-3957 -5093,-3430 -970,121 -454,-48 -1100,363 -710,452 -565,301 -741,871zm9931 -3050c698,612 6120,3211 7674,3793 2472,925 8124,4157 10305,3652 1283,-298 314,49 815,-405l-1366 -449c-242,-67 -907,-265 -1221,-393l-12052 -5342c-1026,-468 -3392,-3224 -4155,-856zm-7260 23343c1232,-210 1397,-579 2211,-1312 508,-459 1377,-1062 1680,-1615 -743,-387 -442,-364 -2221,835 -949,641 -1604,707 -1670,2092zm-74846 -16305c-299,1940 -2092,5087 267,8521 805,1171 1769,1816 3051,2381 5330,2348 12038,-727 14479,-5882 1016,-2145 692,-2006 852,-4383 -1171,-947 -580,-1150 -2496,-747 -197,511 -480,1041 -336,1716 273,1281 1750,1106 1283,2714 -2127,7326 -14743,7025 -16184,-148 -786,-3912 1003,-6230 3815,-8242 3025,-2164 4023,-1569 6332,-1829 3148,-354 7237,-2708 7367,-4894 -1192,420 -1926,2416 -5185,2810 -7696,932 -12762,-1575 -17269,3637 -283,327 -542,371 -324,964 1324,-374 1237,-1568 3731,-1988 1821,-306 2902,-605 5169,-468 -1,1136 -197,938 -969,1569 -2260,1846 -2826,3618 -3583,4269zm43177 -8547c51,4747 -4368,9742 -7456,6730 -1629,-1589 -1015,-4238 235,-5505 1061,-1075 5741,-1235 7221,-1225zm-8261 49c-138,1322 -828,1118 -1504,2594 -342,746 -979,2333 -1372,2892 -3613,5130 -9524,-507 -4565,-5068 1387,-1276 3946,-564 7441,-418zm2506 -1725c-959,-44 -1883,-41 -2833,-71 -1859,-59 -1931,-762 -7736,-477 -1846,91 -6939,1410 -7405,3627 2054,-208 932,-927 2779,-1457 2784,-798 4486,-303 2882,1672 -1639,2018 -1956,3518 -1462,6327 34,28 85,35 97,91l1340 1332c722,403 2058,409 2938,68 244,-95 832,-326 1158,-466 1156,-493 2032,-1845 3315,-2082 601,551 386,720 883,1450 421,616 677,677 1229,1308 2729,97 2153,140 3973,-853 2374,-1294 1765,-1908 3348,-1951 21,1163 -1408,3503 203,2656 889,-468 1241,-1601 1435,-2533 1042,-4997 547,-6270 3765,-6784 1913,-306 3156,343 3031,2266 -218,3352 -9421,14762 -13011,18711 -1456,1602 -3228,3459 -5152,5398 -1318,1327 -3794,3642 -5609,4941 -947,677 -1827,1435 -2932,2233 -709,513 -2566,1618 -2849,2459 741,34 1204,-243 1789,-702l4783 -3658c2199,-1666 4077,-3408 5973,-5291 6095,-6051 10675,-11228 15350,-17973 1921,-2770 2263,-4204 5236,-6030 5917,-3634 8336,4105 4501,6598 -2026,1317 -2328,-107 -3652,-838 -2364,-649 -3827,3898 2027,2677 3564,-744 8493,-7343 3780,-10497 -1566,-420 -1035,-950 -4391,92 -1324,411 -2481,1540 -3736,1625l-34 -2770c-1316,-869 -449,-587 -1403,-794 -2508,-545 -4374,1213 -5607,1224 -184,-2207 3496,-11055 4567,-13235 1089,-2214 1981,-3736 3340,-5584 657,-895 1233,-1623 2024,-2423 379,-383 577,-691 1000,-1109 786,-776 811,-484 1147,-1487 -1827,332 -4405,3853 -5503,5337 -4623,6252 -4800,9495 -6687,13047 -1700,3197 860,4227 -7891,3926zm651 -6376c1142,-339 2488,-2207 2572,-3728 -991,237 -568,-103 -1119,667 -516,721 -1276,2115 -1453,3061zm-83496 37761c-38,-2634 -330,-5729 717,-7780 1803,-3536 6348,-1773 6277,2350 -35,2032 -2049,2602 -4351,4048 -1042,654 -1331,1411 -2643,1382zm8168 -4898c194,-2998 144,-4758 999,-7055 461,-1238 468,-1728 2156,-1994 3937,-622 5160,5025 2538,6631 -688,421 -2030,947 -2732,1279 -957,453 -1853,1058 -2961,1139zm372 -8517l-788 2506c-1537,20 -1078,-1092 -2580,-1355 -4613,-807 -4727,4963 -6103,5635 -835,-446 -180,-251 -752,-1112 -1802,-2716 -5552,1053 -5756,3860 763,-337 303,-91 757,-485 184,-160 1792,-2710 3404,-1687 424,539 1231,1705 1355,2296 137,653 43,1113 203,1724 231,882 260,315 403,1112 312,1749 21,11880 -66,14260l-825 6282c238,1570 -1165,8538 -1657,10495 -860,3424 -1786,6072 -2681,9249 1013,-82 842,-253 1181,-1330 225,-715 379,-1105 564,-1813 295,-1124 400,-1029 641,-1949 866,-3310 1646,-6166 2231,-9733l652 -4350c156,-1346 295,-2831 537,-4104 815,-4291 -63,-12447 912,-13612 1683,-2013 6584,-4195 9000,-5531 1447,-799 1892,-670 2718,-1083 299,-149 96,-70 432,-253l5055 -2688c1899,-1469 2914,-3012 3785,-3325 34,1035 -126,1335 201,1884 2087,-1429 269,-5576 3713,-10782 2780,-4200 7971,-228 6945,3662 -909,3448 -3673,1863 -4294,1986 -1556,308 -1588,4667 2480,1816 1300,-912 2506,-2835 2895,-4402 880,-3543 -569,-4856 -639,-5766 -2267,-895 -3974,-4011 -8582,3149 -162,251 -521,701 -876,928 -557,-773 -843,-5370 77,-7137l2437 -5523c497,-1125 2196,-4069 3613,-4422 2896,-720 4543,2259 2322,3727 -707,187 -1678,-576 -1808,-1714 -11,-100 -34,-131 -70,-188 -679,310 -470,177 -813,870 -730,1475 -52,2745 1271,2778 1821,44 2870,-1683 3410,-3118 1038,-1551 -22,-4005 -1529,-4279 -2944,-534 -4551,2266 -5711,3960l-1169 2101c-372,764 -690,1465 -1104,2197 -1319,2335 -297,1491 -1160,1878 -902,-1379 208,-8421 395,-9638 794,-5169 1757,-4984 2678,-7992l-819 85c-797,1988 -1757,3454 -2266,5287 -569,2056 -835,3957 -1266,6068 -740,3627 -102,8975 -327,10892 -127,1088 -726,1395 -867,2582 727,289 359,-122 1040,469 35,1345 -13,2649 82,3994 170,2403 -144,1524 -948,3047 -205,388 -406,868 -861,1320 -753,749 -2264,2136 -3328,2109 -350,-2276 1388,-5846 -1953,-7873 -3317,-2013 -5624,2894 -5791,3036zm-43869 33693c92,1598 57,2515 604,3843 420,1022 1017,2326 996,3530 -84,4677 -5727,4813 -6660,674 -1089,-4836 1691,-4815 3823,-7459 500,-620 222,-646 1237,-588zm7067 -2858c2076,5736 -787,7889 -3569,6803 -1489,-581 -3559,-3722 -1983,-5764 557,-723 3496,-4002 4253,-4111l1299 3072zm800 -5072c558,-1323 1896,-3028 3350,-1874 2152,1711 3465,10026 3863,12676 128,851 402,1244 524,2174 121,915 111,1857 200,2760 147,1481 428,3165 688,4563 319,1706 582,8397 584,10493 1,1726 -266,6873 -674,8733l-308 900c-612,-1366 -219,-3981 -217,-5644 11,-11264 -2504,-21559 -7576,-31139 -1488,-2810 -932,-2493 -508,-3465 25,-58 49,-118 74,-177zm2126 -10956c343,878 268,5276 -283,6033 -164,224 -586,552 -829,832 -1756,2023 -836,794 -1852,1365l-3045 3572c-239,242 -512,560 -793,853 -2603,2721 -4084,3932 -6763,6360 -2659,2410 -7234,7409 -6880,11245 138,1502 -224,634 631,1037 1015,-3328 -572,-1125 2133,-5599 380,-629 580,-892 1618,-761 141,2160 -100,3311 760,5152 1551,3317 6464,4355 7645,-1837 184,-966 -46,-2449 516,-2552l524 -72c767,16 -146,-18 581,92 3936,597 4056,-2335 4592,-4466l506 -971c578,359 382,72 853,919 141,254 343,773 491,1095 664,1439 2272,5992 2305,7273 802,1048 1951,10294 2263,12066l134 13710c22,80 54,138 79,209l211 402c670,-552 396,-809 440,-1875 548,-301 531,-107 901,-439l603 -900c-589,-2355 581,-2385 564,-5122 -24,-3984 349,-14066 -155,-16880 -556,-3094 -457,-5312 -1152,-7499 -236,-742 -133,-1724 -280,-2552l-2030 -9466c-339,-3251 -111,-7916 3223,-8180 4164,-329 5793,4207 4116,6229 -1179,1421 -4066,-67 -3005,2880 883,2453 5945,-1784 4204,-8152 -295,-1081 -654,-1063 -731,-1941 -1229,-574 -1183,-1489 -2934,-1653 -1444,-135 -2608,119 -3348,920 -657,712 -1896,3516 -2064,4225l-464 1799c-1557,-111 75,104 -2495,-1589l-246 -6639c-32,60 -154,288 -189,349 -380,650 286,-123 -355,528zm3755 -12772c-312,566 -630,715 -1074,1354 -423,609 -503,1178 -969,1437l-141 1595c1006,-445 37,213 1295,-1678 2026,-3047 5051,-167 4490,1592 -326,489 -647,1177 -1501,1148 -1378,-48 -226,-716 -1632,-1137 -952,1313 30,2480 939,3072 3001,821 5497,-9550 -1407,-7383zm-40131 53586l-3222 -1915c-1483,-820 -2982,892 -323,1433l2487 1054c832,465 -39,261 919,491l139 -1063zm-2239 -2614c1133,810 144,830 1610,1059 -140,-1322 -514,-1151 -843,-2368 -99,-318 -1542,-2375 -2622,-2300 -281,1091 -115,1616 513,2292 713,767 795,393 1342,1317zm3466 498l71 -234c-40,-49 -94,-191 -108,-157 -186,463 -577,-3041 -954,-3622 -1826,710 427,4741 704,4990 334,-371 251,-375 287,-977zm5345 12849c991,-778 -227,-713 1095,-2637 635,-924 4488,-3753 4243,-6461 -136,-1506 -116,-685 -410,-1033l-145 383c-348,1044 -267,1174 -1156,2168 -403,450 -490,582 -910,971 -473,437 -731,527 -1179,926 -1002,888 -2730,3800 -1538,5683zm571 -11054c-101,1325 -1835,3417 -2626,4354 -2516,2986 -6463,6243 -6625,10501 -116,3029 15,2453 701,2552 283,-492 69,-3238 1915,-5078 451,-449 141,-184 491,-362 268,-760 477,-1026 889,-1575 504,-671 258,-637 1290,-579 61,813 -364,1384 109,2102 81,-52 150,-92 209,-123 -317,894 -38,2504 28,3471 612,1166 1034,2687 1884,3819 1901,2531 4731,3975 7957,2824 4092,-1459 6950,-5312 7011,-10317 33,-2684 -365,-4402 -1942,-6697 -486,-707 -952,-871 -1216,-1434 -1106,-142 -2212,-476 -2496,636 -274,1070 245,1497 768,2031 2236,240 2640,-183 3450,1718 1676,3935 -749,8004 -3716,10270 -3465,2646 -7684,2051 -10226,-1656 -962,-1402 -781,-3424 -1195,-4824 80,-94 -53,-321 264,-1887 802,-3950 1488,-2164 2937,-5008 465,-912 1237,-3001 1395,-4001 189,-1209 399,-3677 -419,-4719 -387,540 -290,1003 -290,1004 -15,210 38,894 36,1196 -7,1153 14,1279 -583,1782zm-23194 25255c-174,-185 31,-177 -500,-334 -317,1539 641,3113 1500,4319 702,984 724,91 554,-576 -224,-884 -633,-1794 -963,-2650 -72,-207 -348,-477 -499,-652l-92 -107zm-3602 309c-244,-51 -612,-25 -860,-15 146,1662 724,2367 2262,3004 685,284 640,36 1317,574 846,673 297,-640 125,-950 -245,-437 -491,-615 -761,-1016 -51,-75 -181,-55 -371,-215 -272,-229 -522,-513 -783,-759 -321,-277 -541,-443 -929,-623zm3363 3692c-22,-32 -22,-32 0,0zm-4160 394l-244 1165c1514,292 2364,-59 3888,580 253,106 1316,519 1458,147 126,-330 -26,-897 -327,-1090 -610,-391 -2169,-938 -2911,-980 -874,-49 -1009,-144 -1864,178zm-10961 38355c1102,1148 2056,2306 3069,3364 992,1036 2137,1987 3128,3311 590,23 318,26 624,-208 -234,-774 -2533,-3263 -3123,-3957 -1386,-1629 -2310,-3316 -3727,-3302l29 792zm25076 -19777c-1036,-341 -5558,-5639 -4848,-8188 1022,-3667 7424,-1846 6871,1470l-2023 6718zm109 -18730c2309,-1050 4989,833 5266,2764 154,1073 -377,2573 -792,3403 -2249,4490 -1303,4276 -3206,1757 -1344,-1780 -2893,-3025 -2928,-5428 -26,-1775 420,-1932 1660,-2496zm-23398 -3132c477,2330 3499,6266 4704,7772 4285,5350 9374,8720 14709,12776l1744 1287c673,684 1773,3181 1337,4621 -309,1021 -2463,2176 -3498,2514 -3221,1055 -7313,1029 -10526,-90 -1852,-645 -2683,-1052 -4092,-2023 -3695,-2547 -6223,-5601 -8637,-9638 -1070,-1789 -1591,-3251 -2617,-3278 75,956 3300,5866 4513,7482 3442,4582 5065,6265 9502,8580 5768,3009 9603,832 12048,5951 1279,3566 50,2123 -886,4408 164,930 470,1571 1233,1927 2278,-1142 1603,-3680 678,-5847 -1733,-4057 -4353,-4411 -1205,-4971 4584,-815 4989,-2304 4773,-5659 497,-513 685,-527 884,-1393 819,-3574 1020,-5402 2469,-8868 393,-941 817,-2164 1286,-3167 1517,-3238 4823,-10043 2378,-13822l-233 -272c-36,54 -65,136 -77,180 -456,1674 773,438 -485,6121 -1326,114 -959,-61 -1605,-1238 -2738,-4986 -9840,-4247 -7690,2929 325,1085 567,948 486,2410 -1092,426 -1616,147 -2688,831 -3052,1945 -406,6278 -465,7997l-2215 -1388c-41,-29 -97,-69 -137,-99 -41,-29 -97,-69 -137,-99l-5438 -4416c-3317,-2881 -6575,-6020 -8681,-10043l-1170 -2367c-535,-653 -95,-250 -742,-585 7,952 -124,989 480,1477zm34084 15092c-406,314 -403,-269 -165,759 13,57 1377,2809 2766,2945 9,-1083 -513,-1574 -973,-2113 -503,-588 -979,-1235 -1628,-1591zm-11335 73847c181,429 185,970 846,1171 1302,394 2661,-1756 164,-2363 -639,406 -702,380 -1010,1192zm2631 -5141c1788,290 2281,-209 1776,-1773 -604,-210 -1097,-268 -1896,-30 -183,749 -80,1259 120,1803zm-5183 -1665c100,-1849 -1843,-1857 -2262,-853 -554,1328 1020,1990 2262,853zm-3367 -16532c-2921,-328 -9713,-6660 -5642,-9883 809,-640 1971,-928 3147,-526 1124,385 1749,976 2278,2210 544,1272 92,2503 -17,3844 -148,1822 201,2734 234,4355zm-6353 -14313c-1261,-4210 4608,-4095 6683,556 435,975 501,2825 362,4109 -898,-92 -1564,-1951 -4500,-3171 -798,-331 -1411,-280 -2034,-566l-511 -928zm-1846 -1469c1046,2621 1584,2337 807,3422 -535,748 -763,684 -1200,1641 -583,1278 -411,1994 -6,3070 1085,2885 2266,3896 2386,4944 -2309,184 -3931,249 -3294,3197 353,1632 1141,3668 2354,3994 286,-795 -1286,-2572 -444,-4146 1498,-1526 3165,-667 5071,69 3330,1286 3097,2364 4522,2531 -3,-1185 -465,-2080 -495,-3768 -61,-3404 245,-2288 401,-3556 613,-4993 20,-5529 194,-7985 148,-2104 357,-50 774,-1469 184,-627 -288,-922 -632,-1308 -588,-661 -1291,-1255 -2160,-1854l-2935 -1758c-67,-30 -274,-106 -343,-135l-2309 -728c-2918,-422 -3047,1211 -2691,3839zm18572 53435c2407,-1239 4528,2401 1761,5926l-995 1152c-2100,1650 -5238,-4778 -766,-7078zm21899 21524c1613,-14 1537,783 3836,594 -66,-1068 78,-992 -785,-1279l-3972 -166c211,314 165,207 436,450 38,35 117,95 150,124l335 277zm3481 -2281c924,-66 533,-275 1455,-471 -32,-2141 -1018,-962 -2319,-629 -640,164 -728,102 -1452,383 -8,3 -635,251 -657,262 -732,374 -280,108 -611,454 440,296 -412,213 796,278l2788 -277zm-4892 -1568l-688 1100c1054,-237 1727,-446 2600,-1131l910 -705c553,-1905 219,-1249 -2,-1596 -1610,359 -685,934 -2820,2332zm-9228 2037c495,477 1539,750 2332,1498 3082,2909 -2061,9005 -5609,5841 -1208,-1077 -557,-1155 -810,-2886 -345,-2362 -4513,-1282 -2036,1745 586,716 1206,1318 2029,1764 264,143 1014,544 1239,647 1328,607 3773,379 5068,230 1055,-122 1746,-528 2436,-1213 3709,-3680 -2997,-8729 -4649,-7626zm1483 -2373c1686,-1955 -1932,-5490 -4383,-5518 372,1776 920,930 1627,1940 2540,3628 -5517,4773 -7042,2837 -2015,-2557 -2194,-3897 -569,-6304 2564,34 2269,793 7790,615 6401,-207 13966,-2205 20404,417 326,133 317,248 742,210 931,-83 204,256 829,-434 -5285,-2103 -6648,-2357 -13771,-2214 -3665,74 -11365,1503 -14900,498 -664,-1216 -112,-968 674,-2043 1660,-2272 2120,-4761 21,-6741 -1706,-1609 -4591,-3371 -7004,-1884 -721,444 -1221,771 -1571,1532 -1315,2860 411,5319 2160,7008 341,330 464,434 847,791 839,782 448,-98 612,880 220,1310 -1304,2875 279,5499 1489,2466 2563,2050 2358,3493 -1692,273 -15927,-705 -18766,-1607 -1942,-618 -2002,-148 -3436,-561l-10603 -2780c-706,-236 -457,-232 -999,-422 -462,-162 -685,-152 -1101,-324 -822,-341 -760,-933 -1833,-259l2317 1218c1120,323 390,205 1109,486l3795 1159c990,419 3923,865 5159,1420l5454 1082c519,14 1058,7 1558,145 1219,338 161,239 1097,456 580,134 2674,135 3459,183 1381,84 1822,339 2819,454 4984,579 13303,-1 16161,294 1233,127 1183,574 2834,493 40,-61 60,-153 81,-204l230 -564c569,-1070 709,-260 1562,-1251zm38490 34799l-1407 363c-726,-1065 289,-2218 -1532,-2160 -392,658 -670,1754 -1087,2460 -462,779 -1091,1260 -1165,2395 873,10 547,-93 1094,-159l697 -13c21,57 25,143 25,181l-76 671c-80,326 -253,-371 -208,836 909,192 2418,33 3440,40 1347,9 2076,93 2021,-1293 -1342,-538 -2223,152 -3231,-547 788,-469 294,-131 757,-702 376,-93 1266,-534 1743,-820 733,-441 956,-614 1039,-1518 -472,-94 -2133,-335 -2110,266zm47855 43848c169,-1112 2613,-4301 3531,-5648l3876 -5287c6704,-7764 7896,-6574 9787,-8314 -135,-119 93,-657 -1255,-100 -26,10 -982,552 -1089,621 -4843,3113 -8061,5922 -11476,11084 -380,574 -962,1265 -1404,1851 -401,532 -911,1317 -1346,1948l-5313 7585c-6881,9149 -12446,14416 -22295,20647l-1311 792c-2820,1829 -3112,1674 -4825,2692 -2202,1309 -2838,1091 -2914,2314 1043,-110 53,69 731,-285 105,-55 462,-275 587,-347l2242 -1050c47,-25 108,-58 155,-83l4004 -2319c504,-312 1021,-544 1358,-772l2414 -1563c380,-283 582,-453 1102,-782 879,-556 1322,-929 2041,-1424 515,-354 705,-436 1269,-864 456,-347 626,-490 1070,-827l6347 -5386c5505,-4764 9037,-10376 11238,-12240 5736,-4856 8717,29 6739,3947 -1852,3669 -4876,448 -4878,447 -1401,-618 -2620,225 -2008,1736 415,1027 1818,911 3059,857 4369,-193 6701,-5421 9484,-6288 2847,-888 4309,1089 4233,3629 -73,2474 -1505,4180 -3986,4054 -396,-672 -1185,-1613 -2025,-1673 -1155,-82 -1655,828 -1677,1961 1731,1472 4102,1286 6111,72 5864,-3546 4658,-9081 1481,-9457 -3838,-454 -4772,1577 -6865,1581 -156,-4250 -1864,-4899 -5682,-3908 -2595,674 -540,913 -2510,799zm-23150 -3685c138,-1519 -418,-2573 457,-3796 1959,-2738 6504,-1580 7369,2171 1239,5374 -9143,10024 -13042,11888l-10717 4270c-59,21 -118,48 -177,70 -56,22 -113,52 -168,74l-2306 739c-996,396 -4016,646 -4390,1639 1229,718 2587,-323 3739,-643l3554 -1150c627,-228 1307,-475 1865,-684l11726 -4937c3550,-1703 9387,-4765 11430,-7844 1460,-2200 1626,-5195 -496,-6793 -2659,-2002 -8695,-1361 -10794,1617 -1098,1560 -1656,5054 1950,3379zm10624 -10329c915,-208 1186,-599 2257,-1434 830,-646 1405,-599 1344,-1894 -1304,-50 -3338,2058 -3601,3328zm-51036 -28768c3057,1756 -1557,4353 -2378,4669 -2367,913 -1837,1071 -3579,-146 -1024,-400 -1763,-1501 -2448,-2117l175 -1533c-875,-102 -649,81 -931,-355 -450,-618 -431,-343 -997,-1087 -376,-493 -657,-877 -992,-1367 -641,-933 -1030,-1591 -1746,-2458 -670,-540 -376,-22 -644,-938 263,-195 181,-213 619,-346l1953 -135c723,-60 1952,-192 2739,-212 7209,-182 5293,5919 2360,6718 -394,108 -843,121 -1163,218 -1442,437 -445,124 -936,563 782,649 1101,487 2584,341 3143,-310 4211,-2504 4900,-2458 893,405 229,-58 484,643zm-19496 -12606c1137,-575 6066,-958 7654,-585 2524,593 3276,2987 1705,5005 -586,753 -1536,1413 -2793,1518 -1709,142 -1876,-668 -2761,-1533 -864,-843 -1197,-1222 -2025,-2196 -994,-1168 -1624,-1176 -1780,-2209zm12207 25404c1616,1159 2180,3482 5505,3297 -360,-878 -455,-151 -2009,-1916 -633,-718 -1072,-1254 -1690,-2097 -1965,-2679 -2506,-2320 -3896,-3119l-310 -214c825,-587 2443,-832 3782,-1179 1262,-327 2554,-902 3796,-1371 2286,-862 7025,-1260 8689,639 3501,3993 -4432,9222 -5584,4668 -498,-1970 -902,-2203 -3087,-1546 -346,1428 -321,2106 1101,3023l1071 766c1724,126 3693,884 6111,37 274,-96 806,-316 1288,-515l1079 -655c1033,-865 973,-1347 1519,-1948 1143,-19 2356,1004 2487,1895 232,1579 -1994,2767 -2962,3433 -3151,2165 -3841,1178 -4305,2139 309,200 72,122 585,224 1425,285 4418,-1277 6874,-2032 3216,-988 6232,146 6731,2774 510,2687 -1874,5382 -4725,4919 -1776,-287 -1464,-2023 -2298,-2655 -1328,-1006 -2828,195 -2144,1672 1031,2228 8388,5344 9865,9409 950,2612 -559,6362 -3720,5378 -1141,-356 -1783,-1389 -2246,-2494 -249,-597 -474,-1439 -252,-2174 518,-1710 755,220 1070,-1410 -642,-368 -1273,-336 -2209,168 -4366,2356 1872,9966 8099,5764 1185,-800 1759,-1950 1872,-3605 208,-3074 -2131,-5074 -4253,-6580 -2775,-1969 -2628,-1529 -2475,-2662 2173,-539 6521,-1114 6202,-5773 -271,-3960 -6342,-3655 -8171,-3802 195,-1388 1255,-1445 1120,-3222 -644,-1768 -4110,-2175 -4724,-2322 -570,-1645 -633,-4151 -5013,-4809 -576,-87 -945,-118 -1525,-169 -3014,-270 -897,-1198 -467,-1871 2094,-3274 -3603,-3631 -3962,-4978l-175 -1019c-334,-1739 -2671,-2846 -4230,-3202 -846,-194 -1758,12 -2308,-505 -915,-965 524,-899 723,-2467 419,-3312 -3026,-4154 -5501,-4961 -280,-91 -225,176 -351,-139 -29,-73 -117,-44 -170,-76 448,-1125 958,-664 1119,-2105 203,-1821 -1314,-2671 -2646,-3393 -820,-444 278,-191 -1007,-418 -459,-82 -1091,-68 -1559,-70 330,826 31,280 708,747 2105,1450 2863,2863 237,4419l-285 174c-1505,866 -4802,1473 -6851,1585 80,1040 179,681 985,1356 3208,2689 6562,7731 8974,11190 621,889 1170,1704 1858,2598 2668,3465 3962,3239 4629,4334 -452,770 105,143 -857,597 -307,145 -520,255 -980,389l-10575 2743c-1530,320 -2956,464 -4409,776 -1013,218 -1742,43 -2603,252 -1039,253 -792,320 -2195,415 -1741,117 -3376,152 -5174,256 -1761,102 -3208,501 -5130,275 -1381,-162 -3180,-288 -4860,-201 -62,1186 215,1162 1301,1190 924,24 1896,3 2832,17 1888,30 3754,5 5641,-34 1964,-42 3036,-574 4912,-665 947,-46 1798,80 2647,-120l4701 -712c1013,-301 711,-437 2281,-550l4649 -948c943,-351 911,-670 2265,-300 343,94 653,187 1094,314 1368,392 2924,2061 3491,3171zm27226 -973c89,17 573,50 681,54 537,21 1115,-13 1661,-13l6333 -201c2170,-45 2116,17 2370,-804 -1374,-857 -10661,12 -11717,704l672 260zm161449 -156786c-560,416 -1248,586 -2000,833 -264,87 -844,261 -1057,354 -606,263 -323,64 -720,428l3814 1452 -731 2059 2033 -1054 1086 5284 941 -5334 2047 1080 -752 -2051c1020,-714 2917,-798 3801,-1633 -1198,-348 -2835,-702 -3843,-1432l739 -2080 -2036 1089 -1073 -5304 -959 5341 -2053 -1074 763 2042zm-27952 -28444l-2047 -1080 741 2057c-1096,859 -3077,885 -3760,1653l3748 1314 -770 2171 2096 -1092 855 5193c173,-202 174,-158 306,-526l374 -2079c67,-414 119,-750 183,-1101 151,-832 58,-771 412,-1382l1876 1015 -738 -2085 3809 -1420c-653,-615 -2911,-1214 -3755,-1456 67,-843 452,-1279 690,-2169 -1038,296 -1109,754 -2037,962l-934 -5447 -1049 5472zm-30220 -26966c263,589 634,1501 698,2188l-3750 1460 3722 1308c-42,894 -410,1267 -643,2187l2039 -1039 998 5384c634,-1560 291,-4006 1133,-5360 764,326 1040,678 1941,978l-795 -2182 3641 -1376c-914,-656 -2443,-988 -3692,-1381l816 -2179c-855,319 -1145,679 -1911,995 -822,-1355 -536,-3817 -1194,-5380l-938 5477 -2065 -1080zm-13219 -18025c-960,343 -1046,747 -2100,1031l-901 -5286c-585,1006 -776,3902 -1102,5344l-2027 -1051 756 2136 -3715 1329c482,496 1063,568 1750,792 653,212 1370,477 2004,679l-724 2209 1989 -1051 1051 5490 889 -5392c595,-28 1510,668 2153,955l-762 -2039c901,-730 1906,-733 2909,-1165l749 -545 -3756 -1225 837 -2211zm-24791 20214l-3740 1448 3802 1351 -717 2198c605,-390 1272,-882 2063,-1014l830 4988c319,-397 37,277 381,-696 46,-129 103,-442 129,-582 203,-1089 317,-2995 773,-3808l1944 1022 -803 -2156c591,-179 1224,-412 1929,-649l1694 -743 -1891 -798c-653,-218 -1204,-419 -1771,-595l765 -2202 -1902 1025c-764,-1420 -455,-3776 -1173,-5363l-939 5312c-766,-113 -1438,-590 -2070,-986l696 2248zm-28133 26009c-763,178 -2682,737 -3375,1205l3434 1622 -746 2107 1799 -1039 495 1261c74,384 135,901 209,1358 137,850 306,1821 478,2642 728,-1262 606,-3494 1001,-4942 366,-179 409,-261 1163,146 403,217 439,312 974,493l-780 -2134 3785 -1285c-202,-195 -132,-153 -449,-342l-3364 -1183 756 -2137c-1031,345 -945,626 -2079,966 -102,-915 -529,-4431 -1064,-5159l-831 5079c-578,30 -1465,-668 -2121,-952l715 2294zm-29291 27212c-956,686 -2584,1028 -3809,1463 1023,800 2673,776 3850,1604l-739 2085 2083 -1066 894 5319c626,-1109 873,-3893 1011,-5325 1155,341 1207,769 2169,1015l-747 -2044c1053,-754 2802,-801 3804,-1576l-3877 -1485 805 -2040c-982,254 -961,710 -2028,935 -647,-1584 -367,-3841 -1144,-5238l-926 5353 -2097 -1045 751 2045z"/>
 </g>
</svg>
